<svg width="22" height="22" viewBox="0 0 22 22" fill="none" xmlns="http://www.w3.org/2000/svg">
<path d="M7.80994 1L4.18994 4.63M14.1899 1L17.8099 4.63" stroke="#192C53" stroke-miterlimit="10" stroke-linecap="round" stroke-linejoin="round"/>
<path d="M1 6.85001C1 5.00001 1.99 4.85001 3.22 4.85001H18.78C20.01 4.85001 21 5.00001 21 6.85001C21 9.00001 20.01 8.85001 18.78 8.85001H3.22C1.99 8.85001 1 9.00001 1 6.85001Z" stroke="#192C53"/>
<path d="M8.76 13V16.55M13.36 13V16.55M2.5 9L3.91 17.64C4.23 19.58 5 21 7.86 21H13.89C17 21 17.46 19.64 17.82 17.76L19.5 9" stroke="#192C53" stroke-linecap="round"/>
</svg>
