<svg width="20" height="22" viewBox="0 0 20 22" fill="none" xmlns="http://www.w3.org/2000/svg">
<path d="M8 21H12C17 21 19 19 19 14V8C19 3 17 1 12 1H8C3 1 1 3 1 8V14C1 19 3 21 8 21Z" stroke="#192C53" stroke-linecap="round" stroke-linejoin="round"/>
<path d="M14.5 6.57999V7.57999C14.5 8.39999 13.83 9.07999 13 9.07999H7C6.18 9.07999 5.5 8.40999 5.5 7.57999V6.57999C5.5 5.75999 6.17 5.07999 7 5.07999H13C13.83 5.07999 14.5 5.74999 14.5 6.57999Z" stroke="#192C53" stroke-linecap="round" stroke-linejoin="round"/>
<path d="M6.13599 13H6.14799M9.99499 13H10.007M13.854 13H13.866M6.13599 16.5H6.14799M9.99499 16.5H10.007M13.854 16.5H13.866" stroke="#192C53" stroke-linecap="round" stroke-linejoin="round"/>
</svg>
