<svg width="22" height="22" viewBox="0 0 22 22" fill="none" xmlns="http://www.w3.org/2000/svg">
<path d="M8 21H14C19 21 21 19 21 14V8C21 3 19 1 14 1H8C3 1 1 3 1 8V14C1 19 3 21 8 21Z" stroke="#192C53" stroke-linecap="round" stroke-linejoin="round"/>
<path d="M14.5 17.5C15.6 17.5 16.5 16.6 16.5 15.5V6.5C16.5 5.4 15.6 4.5 14.5 4.5C13.4 4.5 12.5 5.4 12.5 6.5V15.5C12.5 16.0304 12.7107 16.5391 13.0858 16.9142C13.4609 17.2893 13.9696 17.5 14.5 17.5ZM7.5 17.5C8.6 17.5 9.5 16.6 9.5 15.5V12C9.5 10.9 8.6 10 7.5 10C6.4 10 5.5 10.9 5.5 12V15.5C5.5 16.0304 5.71071 16.5391 6.08579 16.9142C6.46086 17.2893 6.96957 17.5 7.5 17.5Z" stroke="#192C53" stroke-linecap="round" stroke-linejoin="round"/>
</svg>
