<svg width="22" height="18" viewBox="0 0 22 18" fill="none" xmlns="http://www.w3.org/2000/svg">
<path d="M1 12.29V2.70996C1 1.37996 1.77 1.05996 2.71 1.99996L5.3 4.58996C5.69 4.97996 6.33 4.97996 6.71 4.58996L10.29 0.999964C10.3825 0.90726 10.4924 0.833712 10.6134 0.783531C10.7343 0.733349 10.864 0.70752 10.995 0.70752C11.126 0.70752 11.2557 0.733349 11.3766 0.783531C11.4976 0.833712 11.6075 0.90726 11.7 0.999964L15.29 4.58996C15.68 4.97996 16.32 4.97996 16.7 4.58996L19.29 1.99996C20.23 1.05996 21 1.37996 21 2.70996V12.3C21 15.3 19 17.3 16 17.3H6C3.24 17.29 1 15.05 1 12.29Z" stroke="#192C53" stroke-linecap="round" stroke-linejoin="round"/>
</svg>
