<svg xmlns="http://www.w3.org/2000/svg" xmlns:xlink="http://www.w3.org/1999/xlink" width="52" height="52" viewBox="0 0 52 52">
  <defs>
    <clipPath id="clip-escudo_time">
      <rect width="52" height="52"/>
    </clipPath>
  </defs>
  <g id="escudo_time" data-name="escudo time" clip-path="url(#clip-escudo_time)">
    <g id="Grupo_417" data-name="Grupo 417" transform="translate(6.039)">
      <path id="Caminho_27" data-name="Caminho 27" d="M19.226,11.682a9.275,9.275,0,0,1,9.333,10.453l-3.951,2.753-.4-.809c.264-.56.389-.809.653-1.369l1.2-.28a.6.6,0,0,0,.467-.544l.062-1.182a.589.589,0,0,0-.4-.591l-1.167-.389c-.218-.591-.311-.84-.513-1.431l.653-1.042a.609.609,0,0,0-.062-.716l-.793-.871a.6.6,0,0,0-.7-.124l-1.089.544c-.56-.264-.809-.389-1.369-.653l-.28-1.2a.6.6,0,0,0-.544-.467l-1.2-.062a.589.589,0,0,0-.591.4l-.389,1.167c-.591.218-.84.311-1.431.513l-1.027-.653a.611.611,0,0,0-.716.062l-.871.793a.591.591,0,0,0-.124.7l.544,1.1c-.264.529-.373.793-.622,1.291l-2.94-2.053A9.286,9.286,0,0,1,19.226,11.682ZM19.319,18,21.9,19.428V22.4l-1.727,1.027L16.83,21.155V19.49ZM3.593,11.884V3.593H7.186V7.186a1.806,1.806,0,0,0,1.8,1.8h7.186a1.806,1.806,0,0,0,1.8-1.8V3.593h3.593V7.186a1.806,1.806,0,0,0,1.8,1.8h7.186a1.806,1.806,0,0,0,1.8-1.8V3.593h3.562V16.955l3.593-2.52V1.8a1.806,1.806,0,0,0-1.8-1.8H30.534a1.806,1.806,0,0,0-1.8,1.8V5.4H25.137V1.8a1.806,1.806,0,0,0-1.8-1.8H16.146a1.806,1.806,0,0,0-1.8,1.8V5.4H10.78V1.8A1.8,1.8,0,0,0,8.991,0H1.8A1.806,1.806,0,0,0,0,1.8V9.38l2.193,1.54Z" transform="translate(-0.033)" fill="#9c1006" fill-rule="evenodd"/>
      <path id="Caminho_28" data-name="Caminho 28" d="M-.033,88.4v19.988A5.619,5.619,0,0,0,.5,111.577a10.291,10.291,0,0,0,3.1,2.6l10.437-7.264-6.844-4.791v5.118l-3.624,2.535V95.2l13.611,9.52,3.049-2.131Zm22.508,30.145,13.984-9.8c1.9-1.338,3.033-2.1,3.033-4.526V93.471L6.827,116.352l14.715,10.3v-4.386L13.1,116.352l22.8-15.975v4.386l-16.55,11.588Z" transform="translate(0 -74.649)" fill="#18274d" fill-rule="evenodd"/>
    </g>
  </g>
</svg>
