<svg width="22" height="22" viewBox="0 0 22 22" fill="none" xmlns="http://www.w3.org/2000/svg">
<path d="M6.99995 5V4.2C6.99995 2.43 6.99995 1 10.1999 1H11.7999C14.9999 1 14.9999 2.43 14.9999 4.2V5M6.99995 21H14.9999C19.0199 21 19.7399 19.39 19.9499 17.43L20.6999 9.43C20.9699 6.99 20.2699 5 15.9999 5H5.99995C1.72995 5 1.02995 6.99 1.29995 9.43L2.04995 17.43C2.25995 19.39 2.97995 21 6.99995 21Z" stroke="#192C53" stroke-miterlimit="10" stroke-linecap="round" stroke-linejoin="round"/>
<path d="M13 13.02V12C13 11 13 11 12 11H10C9 11 9 11 9 12V13.03M13 13.02C13 14.11 12.99 15 11 15C9.02 15 9 14.12 9 13.03M13 13.02C15.7642 12.6759 18.3961 11.6369 20.65 10M9 13.03C6.41 12.74 3.87 11.81 1.62 10.27" stroke="#192C53" stroke-miterlimit="10" stroke-linecap="round" stroke-linejoin="round"/>
</svg>
