<svg width="22" height="22" viewBox="0 0 22 22" fill="none" xmlns="http://www.w3.org/2000/svg">
<path d="M16.0099 11.73C16.2937 11.73 16.5659 11.6173 16.7665 11.4166C16.9672 11.2159 17.0799 10.9438 17.0799 10.66C17.0799 10.3762 16.9672 10.1041 16.7665 9.90339C16.5659 9.70273 16.2937 9.59 16.0099 9.59C15.7262 9.59 15.454 9.70273 15.2533 9.90339C15.0527 10.1041 14.9399 10.3762 14.9399 10.66C14.9399 10.9438 15.0527 11.2159 15.2533 11.4166C15.454 11.6173 15.7262 11.73 16.0099 11.73Z" stroke="#192C53" stroke-linecap="round" stroke-linejoin="round"/>
<path d="M8 14.7V19M1 10.9H11M4.95 19H11M19 5V6.79C18.75 6.76 18.46 6.74 18.15 6.74H13.87C11.73 6.74 11.02 7.45 11.02 9.59V14.7H5C1.8 14.7 1 13.9 1 10.7V5C1 1.8 1.8 1 5 1H15C18.2 1 19 1.8 19 5Z" stroke="#192C53" stroke-linecap="round" stroke-linejoin="round"/>
<path d="M16.0099 11.73C16.2937 11.73 16.5659 11.6173 16.7665 11.4166C16.9672 11.2159 17.0799 10.9438 17.0799 10.66C17.0799 10.3762 16.9672 10.1041 16.7665 9.90339C16.5659 9.70273 16.2937 9.59 16.0099 9.59C15.7262 9.59 15.454 9.70273 15.2533 9.90339C15.0527 10.1041 14.9399 10.3762 14.9399 10.66C14.9399 10.9438 15.0527 11.2159 15.2533 11.4166C15.454 11.6173 15.7262 11.73 16.0099 11.73Z" stroke="#192C53" stroke-miterlimit="10" stroke-linecap="round" stroke-linejoin="round"/>
<path d="M19 6.78999C18.75 6.75999 18.46 6.73999 18.15 6.73999H13.87C11.73 6.73999 11.02 7.44999 11.02 9.58999V18.15C11.02 20.29 11.73 21 13.87 21H18.15C20.29 21 21 20.29 21 18.15V9.58999C21 7.75999 20.48 6.97999 19 6.78999ZM16.01 9.58999C16.2858 9.60192 16.5463 9.71986 16.7372 9.91922C16.9282 10.1186 17.0347 10.384 17.0347 10.66C17.0347 10.936 16.9282 11.2014 16.7372 11.4008C16.5463 11.6001 16.2858 11.7181 16.01 11.73C15.7342 11.7181 15.4737 11.6001 15.2828 11.4008C15.0919 11.2014 14.9853 10.936 14.9853 10.66C14.9853 10.384 15.0919 10.1186 15.2828 9.91922C15.4737 9.71986 15.7342 9.60192 16.01 9.58999ZM16.01 18.15C14.83 18.15 13.87 17.19 13.87 16.01C13.8706 15.6001 13.9887 15.199 14.2104 14.8543C14.4321 14.5096 14.748 14.2357 15.1207 14.0651C15.4934 13.8946 15.9072 13.8345 16.3129 13.8921C16.7187 13.9497 17.0995 14.1225 17.41 14.39C17.86 14.79 18.15 15.37 18.15 16.01C18.15 17.19 17.19 18.15 16.01 18.15Z" stroke="#192C53" stroke-miterlimit="10" stroke-linecap="round" stroke-linejoin="round"/>
<path d="M18.15 16.01C18.15 17.19 17.19 18.15 16.01 18.15C14.83 18.15 13.87 17.19 13.87 16.01C13.8705 15.6001 13.9887 15.199 14.2104 14.8543C14.432 14.5096 14.748 14.2357 15.1207 14.0651C15.4933 13.8946 15.9071 13.8345 16.3129 13.8921C16.7187 13.9497 17.0995 14.1225 17.41 14.39C17.86 14.79 18.15 15.37 18.15 16.01ZM16.01 11.73C16.2938 11.73 16.5659 11.6173 16.7666 11.4166C16.9673 11.2159 17.08 10.9438 17.08 10.66C17.08 10.3762 16.9673 10.1041 16.7666 9.90339C16.5659 9.70273 16.2938 9.59 16.01 9.59C15.7262 9.59 15.4541 9.70273 15.2534 9.90339C15.0527 10.1041 14.94 10.3762 14.94 10.66C14.94 10.9438 15.0527 11.2159 15.2534 11.4166C15.4541 11.6173 15.7262 11.73 16.01 11.73Z" stroke="#192C53" stroke-miterlimit="10" stroke-linecap="round" stroke-linejoin="round"/>
</svg>
