<svg width="22" height="22" viewBox="0 0 22 22" fill="none" xmlns="http://www.w3.org/2000/svg">
<path d="M11 21C16.523 21 21 16.523 21 11C21 5.477 16.523 1 11 1C5.477 1 1 5.477 1 11C1 16.523 5.477 21 11 21Z" stroke="#192C53" stroke-linecap="round" stroke-linejoin="round"/>
<path d="M6.99995 2H7.99995C6.04998 7.84157 6.04998 14.1584 7.99995 20H6.99995M14 2C15.9499 7.84157 15.9499 14.1584 14 20" stroke="#192C53" stroke-linecap="round" stroke-linejoin="round"/>
<path d="M2 15V14C7.84157 15.95 14.1584 15.95 20 14V15M2 8.00001C7.84157 6.05004 14.1584 6.05004 20 8.00001" stroke="#192C53" stroke-linecap="round" stroke-linejoin="round"/>
</svg>
