<svg width="20" height="22" viewBox="0 0 20 22" fill="none" xmlns="http://www.w3.org/2000/svg">
<path d="M6 11.2H13M6 15.2H10.38M8 5H12C14 5 14 4 14 3C14 1 13 1 12 1H8C7 1 6 1 6 3C6 5 7 5 8 5Z" stroke="#192C53" stroke-miterlimit="10" stroke-linecap="round" stroke-linejoin="round"/>
<path d="M14 3.01999C17.33 3.19999 19 4.42999 19 8.99999V15C19 19 18 21 13 21H7C2 21 1 19 1 15V8.99999C1 4.43999 2.67 3.19999 6 3.01999" stroke="#192C53" stroke-miterlimit="10" stroke-linecap="round" stroke-linejoin="round"/>
</svg>
