<svg width="22" height="22" viewBox="0 0 22 22" fill="none" xmlns="http://www.w3.org/2000/svg">
<path d="M14 1V11C14 12.1 13.1 13 12 13H1V5C1 2.79 2.79 1 5 1H14Z" stroke="#192C53" stroke-linecap="round" stroke-linejoin="round"/>
<path d="M21 13V16C21 17.66 19.66 19 18 19H17C17 17.9 16.1 17 15 17C13.9 17 13 17.9 13 19H9C9 17.9 8.1 17 7 17C5.9 17 5 17.9 5 19H4C2.34 19 1 17.66 1 16V13H12C13.1 13 14 12.1 14 11V4H15.84C16.56 4 17.22 4.39 17.58 5.01L19.29 8H18C17.45 8 17 8.45 17 9V12C17 12.55 17.45 13 18 13H21Z" stroke="#192C53" stroke-linecap="round" stroke-linejoin="round"/>
<path d="M7 21C7.53043 21 8.03914 20.7893 8.41421 20.4142C8.78929 20.0391 9 19.5304 9 19C9 18.4696 8.78929 17.9609 8.41421 17.5858C8.03914 17.2107 7.53043 17 7 17C6.46957 17 5.96086 17.2107 5.58579 17.5858C5.21071 17.9609 5 18.4696 5 19C5 19.5304 5.21071 20.0391 5.58579 20.4142C5.96086 20.7893 6.46957 21 7 21ZM15 21C15.5304 21 16.0391 20.7893 16.4142 20.4142C16.7893 20.0391 17 19.5304 17 19C17 18.4696 16.7893 17.9609 16.4142 17.5858C16.0391 17.2107 15.5304 17 15 17C14.4696 17 13.9609 17.2107 13.5858 17.5858C13.2107 17.9609 13 18.4696 13 19C13 19.5304 13.2107 20.0391 13.5858 20.4142C13.9609 20.7893 14.4696 21 15 21ZM21 11V13H18C17.45 13 17 12.55 17 12V9C17 8.45 17.45 8 18 8H19.29L21 11Z" stroke="#192C53" stroke-linecap="round" stroke-linejoin="round"/>
</svg>
