<svg width="18" height="22" viewBox="0 0 18 22" fill="none" xmlns="http://www.w3.org/2000/svg">
<path d="M9.00006 6.89001L7.93006 8.75001C7.69006 9.16001 7.89006 9.50001 8.36006 9.50001H9.63006C10.1101 9.50001 10.3001 9.84001 10.0601 10.25L9.00006 12.11" stroke="#192C53" stroke-linecap="round" stroke-linejoin="round"/>
<path d="M5.49999 21C7.78999 20.35 10.21 20.35 12.5 21M5.29999 17.04V15.88C2.99999 14.49 1.10999 11.78 1.10999 8.89999C1.10999 3.94999 5.65999 0.0699924 10.8 1.18999C13.06 1.68999 15.04 3.18999 16.07 5.25999C18.16 9.45999 15.96 13.92 12.73 15.87V17.03C12.73 17.32 12.84 17.99 11.77 17.99H6.25999C5.15999 18 5.29999 17.57 5.29999 17.04Z" stroke="#192C53" stroke-linecap="round" stroke-linejoin="round"/>
</svg>
