<svg width="22" height="22" viewBox="0 0 22 22" fill="none" xmlns="http://www.w3.org/2000/svg">
<path d="M10 1H8C3 1 1 3 1 8V14C1 19 3 21 8 21H14C19 21 21 19 21 14V12" stroke="#192C53" stroke-linecap="round" stroke-linejoin="round"/>
<path d="M15.04 2.02001L7.16 9.90001C6.86 10.2 6.56 10.79 6.5 11.22L6.07 14.23C5.91 15.32 6.68 16.08 7.77 15.93L10.78 15.5C11.2 15.44 11.79 15.14 12.1 14.84L19.98 6.96001C21.34 5.60001 21.98 4.02001 19.98 2.02001C17.98 0.0200086 16.4 0.660009 15.04 2.02001Z" stroke="#192C53" stroke-miterlimit="10" stroke-linecap="round" stroke-linejoin="round"/>
<path d="M13.91 3.14999C14.2416 4.32746 14.87 5.40006 15.735 6.26504C16.6 7.13002 17.6726 7.7584 18.85 8.08999" stroke="#192C53" stroke-miterlimit="10" stroke-linecap="round" stroke-linejoin="round"/>
</svg>
