<svg width="24" height="21" viewBox="0 0 24 21" fill="none" xmlns="http://www.w3.org/2000/svg">
<path d="M1 20H23M19.78 20.01V15.55M2.1 20V4.03001C2.1 2.02001 3.1 1.01001 5.09 1.01001H11.32C13.31 1.01001 14.3 2.02001 14.3 4.03001V20M5.8 6.25001H10.75M5.8 10H10.75M8.25 20V16.25M19.8 8.89001C18.58 8.89001 17.6 9.87001 17.6 11.09V13.36C17.6 14.58 18.58 15.56 19.8 15.56C21.02 15.56 22 14.58 22 13.36V11.09C22 9.87001 21.02 8.89001 19.8 8.89001Z" stroke="#192C53" stroke-miterlimit="10" stroke-linecap="round" stroke-linejoin="round"/>
</svg>
