<svg width="20" height="21" viewBox="0 0 20 21" fill="none" xmlns="http://www.w3.org/2000/svg">
<path d="M16.0099 7.99L13.0099 4.99M1.49994 19.5C2.32994 20.33 3.66994 20.33 4.49994 19.5L17.4999 6.5C18.3299 5.67 18.3299 4.33 17.4999 3.5C16.6699 2.67 15.3299 2.67 14.4999 3.5L1.49994 16.5C0.669941 17.33 0.669941 18.67 1.49994 19.5Z" stroke="#192C53" stroke-linecap="round" stroke-linejoin="round"/>
<path d="M6.5 1.44L8 1L7.56 2.5L8 4L6.5 3.56L5 4L5.44 2.5L5 1L6.5 1.44ZM2.5 7.44L4 7L3.56 8.5L4 10L2.5 9.56L1 10L1.44 8.5L1 7L2.5 7.44ZM17.5 12.44L19 12L18.56 13.5L19 15L17.5 14.56L16 15L16.44 13.5L16 12L17.5 12.44Z" stroke="#192C53" stroke-linecap="round" stroke-linejoin="round"/>
</svg>
