<svg width="18" height="18" viewBox="0 0 18 18" fill="none" xmlns="http://www.w3.org/2000/svg">
<path d="M9 0C4.03179 0.00578571 0.00578571 4.03179 0 8.99941V12C0 13.3255 1.07454 14.4 2.4 14.4H3.6C4.26273 14.4 4.8 13.8627 4.8 13.2V7.8C4.8 7.13727 4.26273 6.6 3.6 6.6H2.4C2.08586 6.60171 1.78671 6.6637 1.51275 6.77496L1.52877 6.76923C2.52338 3.52473 5.49011 1.20536 8.99936 1.20005C12.5092 1.20536 15.4766 3.52473 16.4566 6.71389L16.4712 6.76923C16.2133 6.66375 15.9141 6.60177 15.6006 6.60005H14.3999C13.7372 6.60005 13.1999 7.13732 13.1999 7.80005V13.2001C13.1999 13.8628 13.7372 14.4001 14.3999 14.4001H15.5999C15.9137 14.3984 16.2124 14.3365 16.4859 14.2251L16.4699 14.2308C15.8152 15.752 14.33 16.7981 12.6002 16.8H10.7999V18H12.5999C15.5809 17.9966 17.9966 15.581 17.9999 12.6003V9C17.9942 4.03179 13.9677 0.00578571 9 0ZM3.6 13.2H3V7.8H3.6V13.2ZM2.4 7.8V13.2C1.73727 13.2 1.2 12.6627 1.2 12V9C1.2 8.33727 1.73727 7.8 2.4 7.8ZM14.4 7.8H15V13.2H14.4V7.8ZM15.6 13.2V7.8C16.2627 7.8 16.8 8.33727 16.8 9V12C16.8 12.6627 16.2627 13.2 15.6 13.2Z" fill="#192C53"/>
</svg>
