<svg width="82" height="82" viewBox="0 0 82 82" fill="none" xmlns="http://www.w3.org/2000/svg">
<path d="M31.375 47.8542C31.375 51.6533 34.3125 54.7083 37.9158 54.7083H45.2792C48.4125 54.7083 50.9583 52.045 50.9583 48.7158C50.9583 45.1517 49.3917 43.8592 47.0808 43.0367L35.2917 38.9242C32.9808 38.1017 31.4142 36.8483 31.4142 33.245C31.4142 29.955 33.96 27.2525 37.0933 27.2525H44.4567C48.06 27.2525 50.9975 30.3075 50.9975 34.1067M41.1667 23.375V58.625" stroke="#192C53" stroke-width="3" stroke-linecap="round" stroke-linejoin="round"/>
<path d="M80.3333 41C80.3333 62.62 62.7867 80.1667 41.1667 80.1667C19.5467 80.1667 2 62.62 2 41C2 19.38 19.5467 1.83334 41.1667 1.83334M80.3333 17.5V1.83334M80.3333 1.83334H64.6667M80.3333 1.83334L60.75 21.4167" stroke="#192C53" stroke-width="3" stroke-linecap="round" stroke-linejoin="round"/>
</svg>
