<svg width="202" height="76" viewBox="0 0 202 76" fill="none" xmlns="http://www.w3.org/2000/svg">
<g clip-path="url(#clip0_3_75)">
<path d="M27.4989 75.9016H19.674L37.5594 56.6781H45.6079L49.185 75.9016H41.5836L41.1365 72.7722H32.4173L37.1122 67.8546H40.2422C40.2422 67.631 40.2422 67.184 40.2422 66.7369C40.2422 66.2898 40.0186 65.8428 40.0186 65.6192C40.0186 65.1721 39.795 64.7251 39.795 64.278C39.795 63.8309 39.5715 63.3839 39.5715 62.9368L27.4988 75.9015L27.4989 75.9016Z" fill="#192C53"/>
<path d="M62.3755 62.9369L57.6806 75.6781H51.1971L58.1278 56.6781H68.4119L74.2247 69.4193L78.9196 56.6781H85.4031L78.249 75.9016H67.9648L62.3756 62.937L62.3755 62.9369Z" fill="#192C53"/>
<path d="M86.7446 75.6781H78.9197L96.8051 56.4546H104.854L108.431 75.6781H100.829L100.382 72.5487H91.663L96.358 67.631H99.4879C99.4879 67.1839 99.2644 66.7369 99.2644 66.2898C99.2644 65.8427 99.2644 65.8427 99.0408 65.3957C99.0408 64.9486 98.8172 64.5016 98.8172 64.0545C98.8172 63.6074 98.5936 63.1604 98.5936 62.7133L86.7444 75.678L86.7446 75.6781Z" fill="#192C53"/>
<path d="M118.715 75.6781H112.008L117.15 61.5958H108.878L110.89 56.4546H133.917L131.905 61.8192H123.857L118.715 75.678V75.6781Z" fill="#192C53"/>
<path d="M143.307 56.4546L136.153 75.6781H129.446L136.6 56.4546H143.307Z" fill="#192C53"/>
<path d="M143.978 62.0428C144.649 60.2546 145.543 58.9134 147.108 57.7957C148.673 56.9016 150.685 56.4545 152.474 56.4545H169.018L167.006 61.8192H151.132C150.909 61.8192 150.462 61.8192 150.238 62.0427C150.014 62.0427 149.791 62.2663 149.791 62.4898L149.12 64.0545L147.555 68.3016C147.555 68.5251 147.332 68.7487 147.332 68.9722C147.332 69.1956 147.108 69.4193 147.108 69.6427C147.108 69.8662 147.332 70.3133 148.002 70.3133H163.876L161.863 75.678H145.319C143.754 75.9015 142.189 75.4544 140.848 74.3368C140.177 72.9956 140.177 71.4309 140.848 70.3132L143.978 62.0426V62.0428Z" fill="#192C53"/>
<path d="M191.598 65.8428C191.822 67.184 191.598 68.5251 190.927 69.6428C190.257 71.431 189.139 72.9957 187.797 74.3369C186.232 75.4546 184.444 75.9016 182.655 75.6781H169.018L167.453 75.231L166.558 74.5604L166.111 73.8899V72.5487L166.782 70.7604H181.761C182.208 70.7604 182.655 70.7604 183.326 70.5369C183.773 70.3134 184.22 70.0898 184.22 69.6428C184.444 69.1957 184.22 68.7487 183.773 68.7487C183.549 68.7487 183.102 68.5251 182.879 68.5251C182.655 68.5251 182.208 68.5251 181.761 68.5251C181.537 68.5251 181.314 68.5251 181.09 68.5251C180.867 68.5251 180.42 68.5251 179.972 68.5251H179.078C177.96 68.5251 177.066 68.5251 176.395 68.5251C175.725 68.5251 175.277 68.5251 175.054 68.5251C174.83 68.5251 174.607 68.5251 174.16 68.5251C173.936 68.5251 173.712 68.5251 173.489 68.5251C173.265 68.5251 173.265 68.5251 173.042 68.5251C172.818 68.5251 172.818 68.5251 172.595 68.5251H172.147C170.359 68.5251 169.241 67.8546 168.794 66.7369C168.57 66.2898 168.57 65.6192 168.57 65.1722C168.794 64.5017 168.794 63.6075 169.241 62.9369C169.912 61.1487 170.806 59.584 172.147 58.2428C173.712 56.9016 175.501 56.4546 177.066 56.4546H191.151L192.269 56.9017L193.163 57.3487L193.61 58.2429L193.834 59.3605L193.163 61.3723H178.184C177.737 61.3723 177.29 61.3723 176.842 61.5958C176.395 61.8194 176.172 62.0429 175.948 62.49C175.725 62.937 175.948 63.1605 176.172 63.3841C176.619 63.6076 177.066 63.6076 177.513 63.6076H178.631C178.855 63.6076 179.525 63.6076 180.196 63.6076H181.09C181.984 63.6076 182.879 63.6076 183.549 63.6076C184.22 63.6076 184.667 63.6076 185.114 63.6076C185.338 63.6076 185.562 63.6076 185.785 63.6076C186.009 63.6076 186.232 63.6076 186.456 63.6076H186.679H186.903C187.126 63.6076 187.35 63.6076 187.574 63.6076C187.797 63.6076 188.021 63.6076 188.244 63.6076C188.915 63.6076 189.809 63.8312 190.48 64.2782C190.927 64.7253 191.374 65.1723 191.598 65.8429L191.598 65.8428Z" fill="#192C53"/>
<path d="M6.93064 75.9017H0L7.37774 56.4546H28.3932L26.381 62.0428H12.2963L11.1784 64.5016L9.38986 69.6428L6.93064 75.9017ZM12.5198 64.5017H23.9218L21.9097 69.6429H10.5077L12.5198 64.5017Z" fill="#192C53"/>
<path d="M97.2523 0L85.6267 30.8471C85.4031 31.2942 85.6267 31.9648 86.0739 32.1883C86.7445 32.6354 87.6388 32.8589 88.5331 32.6354H108.878C109.996 32.6354 110.89 32.4118 111.784 32.1883C112.455 31.9648 112.902 31.5177 113.126 30.8471L124.528 0H140.848L128.552 32.6353C127.881 34.6471 126.987 36.4353 125.646 38.2235C124.304 40.0118 122.963 41.353 121.174 42.4706C120.28 43.1412 119.386 43.5883 118.715 44.0353C118.044 44.4823 117.373 44.7059 116.703 45.153C116.032 45.6001 113.796 46.2706 112.231 46.4942C111.337 46.7177 110.219 46.9413 109.325 46.9413C107.984 46.9413 106.866 47.1648 105.524 47.1648C104.183 47.1648 102.394 47.1648 100.159 47.1648C97.9231 47.1648 95.6875 47.1648 93.0046 47.1648C90.3218 47.1648 87.8625 47.1648 85.8505 47.1648C83.8384 47.1648 82.0498 47.1648 80.7084 47.1648C78.4727 47.1648 76.4606 46.9413 74.2249 46.4943C73.5542 46.4943 72.8835 46.2707 72.2128 46.0472C71.7656 45.8236 71.095 45.6001 70.6479 45.3766C70.2008 45.1531 69.7536 44.706 69.3064 44.2589C68.8592 43.8118 68.4121 43.1413 67.965 42.6943C67.0707 41.3531 66.6235 40.0119 66.6235 38.4472C66.8471 36.6589 67.2942 34.6472 67.965 32.8589L80.9319 0.000148438H97.2524L97.2523 0Z" fill="#192C53"/>
<path d="M164.099 46.7177H147.555L160.298 12.5177H140.177L145.096 0H201.211L196.516 12.5177H177.066L164.099 46.7177Z" fill="#192C53"/>
<path d="M24.5925 46.7177H8.04846L25.7103 0H75.7896L70.8711 13.1882H37.3358L35.1001 19.2235L30.4052 31.7412L24.5924 46.7177H24.5925ZM37.5595 19.2235H64.6113L59.9164 31.7412H32.8646L37.5595 19.2235Z" fill="#192C53"/>
</g>
<defs>
<clipPath id="clip0_3_75">
<rect width="201.242" height="76" fill="white"/>
</clipPath>
</defs>
</svg>
