<svg width="48" height="52" viewBox="0 0 48 52" fill="none" xmlns="http://www.w3.org/2000/svg">
<path d="M23.9999 15.375V28.5M46.6999 17.45V34.55C46.6999 37.35 45.1999 39.95 42.7749 41.375L27.9249 49.95C25.4999 51.35 22.4999 51.35 20.0499 49.95L5.19991 41.375C4.00434 40.6818 3.01225 39.6862 2.32328 38.4882C1.63432 37.2902 1.27276 35.932 1.27491 34.55V17.45C1.27491 14.65 2.77491 12.05 5.19991 10.625L20.0499 2.05C22.4749 0.65 25.4749 0.65 27.9249 2.05L42.7749 10.625C45.1999 12.05 46.6999 14.625 46.6999 17.45Z" stroke="black" stroke-width="1.5" stroke-linecap="round" stroke-linejoin="round"/>
<path d="M24 36.5V36.75" stroke="black" stroke-width="2" stroke-linecap="round" stroke-linejoin="round"/>
</svg>
