<svg width="61" height="58" viewBox="0 0 61 58" fill="none" xmlns="http://www.w3.org/2000/svg">
<path d="M44.3334 42.25L41.6667 39.5M30.3334 40.875C31.9968 40.875 33.6439 40.5371 35.1807 39.8807C36.7175 39.2242 38.1139 38.262 39.2901 37.0491C40.4663 35.8361 41.3993 34.3961 42.0359 32.8113C42.6724 31.2265 43.0001 29.5279 43.0001 27.8125C43.0001 26.0971 42.6724 24.3985 42.0359 22.8137C41.3993 21.2289 40.4663 19.7889 39.2901 18.5759C38.1139 17.363 36.7175 16.4008 35.1807 15.7443C33.6439 15.0879 31.9968 14.75 30.3334 14.75C26.974 14.75 23.7522 16.1262 21.3767 18.5759C19.0013 21.0256 17.6667 24.3481 17.6667 27.8125C17.6667 31.2769 19.0013 34.5994 21.3767 37.0491C23.7522 39.4988 26.974 40.875 30.3334 40.875Z" stroke="black" stroke-width="1.5" stroke-linecap="round" stroke-linejoin="round"/>
<path d="M60.5 29C60.5 44.7167 47.0926 57.5 30.5 57.5C13.9074 57.5 0.5 44.7167 0.5 29C0.5 13.2833 13.9074 0.5 30.5 0.5C47.0926 0.5 60.5 13.2833 60.5 29Z" stroke="black"/>
</svg>
